<svg width="41" height="40" viewBox="0 0 41 40" fill="none" xmlns="http://www.w3.org/2000/svg">
<path d="M40.5 20C40.5 30.758 31.5574 39.5 20.5 39.5C9.44259 39.5 0.5 30.758 0.5 20C0.5 9.24201 9.44259 0.5 20.5 0.5C31.5574 0.5 40.5 9.24201 40.5 20Z" stroke="#18CFAB"/>
<path d="M16.8189 23.1037C16.5223 22.7521 16.5441 22.2321 16.869 21.9066L20.5886 18.1801C20.9681 17.7999 21.5948 17.8383 21.925 18.2619V18.2619C22.2026 18.6179 22.1709 19.125 21.8511 19.4437L18.1213 23.1599C17.7542 23.5257 17.1531 23.4997 16.8189 23.1037V23.1037ZM18.2498 24.0171C18.3407 24.3711 18.2649 24.7596 17.9877 25.0363L16.4749 26.5495C16.0572 26.9672 15.3811 26.9672 14.9628 26.5495L13.4506 25.0363C13.0324 24.6186 13.0324 23.9429 13.4506 23.5241L14.9628 22.012C15.2395 21.7352 15.6264 21.66 15.9805 21.7488L17.5704 20.1593C16.3183 19.2706 14.5717 19.3787 13.4506 20.4998L11.9379 22.012C10.6874 23.2631 10.6874 25.2984 11.9379 26.5495L13.4506 28.0617C14.7012 29.3128 16.7365 29.3128 17.9877 28.0617L19.4998 26.5495C20.6214 25.4279 20.7279 23.6797 19.8387 22.4276L18.2498 24.0171ZM27.0617 14.4506L25.5495 12.9379C24.2984 11.6874 22.263 11.6874 21.012 12.9379L19.4999 14.4506C18.3788 15.5717 18.2707 17.3183 19.1594 18.5704L20.0153 17.7678L20.7499 16.9799C20.6601 16.6264 20.7352 16.2395 21.0121 15.9628L22.5242 14.4506C22.9419 14.0329 23.6186 14.0323 24.0364 14.4506L25.5496 15.9628C25.9673 16.381 25.9663 17.0577 25.5496 17.4749L24.0364 18.9876C23.7596 19.2649 23.3712 19.3401 23.0171 19.2498L21.4277 20.8392C22.6788 21.7289 24.428 21.6214 25.5496 20.4998L27.0618 18.9877C28.3128 17.7366 28.3128 15.7012 27.0617 14.4506Z" fill="#18CFAB"/>
</svg>
